# xmcd
#
# Track frame offsets:
#	150
#	13770
#	30537
#	49452
#	65299
#	80789
#	97962
#	112950
#	128419
#	141021
#	158951
#	172341
#
# Disc length: 2480 seconds
#
# Revision: 0
# Processed by: cddbd v1.5.2PL0 Copyright (c) Steve Scherf et al.
# Submitted via: EasyCDDAExtractor 12.0.1.1
#
DISCID=9e09ae0c
DTITLE=Sogns - Det koster å vara kar
DYEAR=2008
DGENRE=
TTITLE0=Ringernes herre
TTITLE1=Det koster å vara kar
TTITLE2=Jinta mi
TTITLE3=Ungkar og spellemænn
TTITLE4=Ta meg tælbasjatt
TTITLE5=Trækkspeller'n
TTITLE6=Motepol'ti
TTITLE7=Det enkle er det bæste
TTITLE8=En spa'e førr en spa'e
TTITLE9=På et blunk
TTITLE10=Åffer kæn'te je læ da navlelo?
TTITLE11=Hvis ælle var som je
EXTD=
EXTT0=
EXTT1=
EXTT2=
EXTT3=
EXTT4=
EXTT5=
EXTT6=
EXTT7=
EXTT8=
EXTT9=
EXTT10=
EXTT11=
PLAYORDER=
